#N canvas 166 25 1196 838 12;
#X obj 192 56 adc~;
#X floatatom 856 207 5 0 0 0 - - - 0;
#X obj 170 80 *~ 5;
#X obj 111 105 rfft~;
#X msg 46 109 set f;
#X obj 46 144 tabwrite~ f;
#X obj 185 177 tgl 19 0 empty empty empty 0 -10 0 12 #fcfcfc #000000 #000000 0 1;
#X obj 217 83 *~ 1;
#X obj 175 105 *~;
#X obj 889 99 sigmund~ pitch quality evenness env;
#X floatatom 421 210 9 0 0 0 - - - 0;
#X obj 293 138 unpack f f f f;
#X floatatom 501 206 10 0 0 0 - - - 0;
#X obj 409 141 unpack f f f f;
#X floatatom 582 208 10 0 0 0 - - - 0;
#X obj 530 141 unpack f f f f;
#X floatatom 674 207 9 0 0 0 - - - 0;
#X obj 644 139 unpack f f f f;
#X floatatom 750 206 10 0 0 0 - - - 0;
#X obj 763 139 unpack f f f f;
#X obj 375 62 sigmund~ -npts 2048 -npeak 5 peaks;
#X obj 447 88 route 0 1 2 3 4;
#X floatatom 41 371 5 0 0 0 - - - 0;
#X obj 213 104 metro 2;
#X obj 37 399 spigot;
#X obj 112 369 moses 0.5;
#X floatatom 281 384 5 0 0 0 - - - 0;
#X obj 236 410 spigot;
#X obj 312 409 moses 0.5;
#X obj 291 435 print tap;
#X floatatom 460 467 5 0 0 0 - - - 0;
#X obj 459 500 spigot;
#X obj 512 473 moses 0.5;
#X obj 513 504 print shhh;
#X floatatom 665 445 5 0 0 0 - - - 0;
#X obj 670 470 spigot;
#X obj 712 445 moses 0.5;
#X obj 28 425 print tableknock;
#X floatatom 879 375 5 0 0 0 - - - 0;
#X obj 885 406 spigot;
#X obj 923 383 moses 0.5;
#X obj 880 426 print crinkle;
#X floatatom 1105 387 5 0 0 0 - - - 0;
#X obj 1111 417 spigot;
#X obj 1152 390 moses 0.5;
#X obj 1115 442 print couch;
#X obj 872 323 expr if ($f1 < 150 && $f2 < 80 && $f3 < 200 && ($f4 + $f5 > 15000) \, 1 \, 0), f 28;
#X obj 671 489 print shakerBottle;
#X obj 659 336 expr if ($f6 > 80 && $f1 > 700 && $f1 < 1000 && $f2 > 700 && $f2 < 1050 && $f3 > 850 && $f3 < 1010 && $f4 > 800 && $f4 < 1100 && $f5 > 850 && $f5 < 1100 \, 1 \, 0), f 24;
#X obj 1222 451 shell;
#X msg 1223 420 ls;
#X obj 1212 484 print ls;
#X obj 346 501 shell;
#X msg 352 471 date +%k%M;
#X obj 342 528 print time;
#X msg 155 460 date +%Y.%m.%d;
#X obj 156 485 shell;
#X obj 158 509 print date;
#X obj 597 545 shell;
#X msg 598 514 pwd;
#X obj 587 578 print pwd;
#X obj 805 522 shell;
#X obj 983 451 shell;
#X msg 806 491 df;
#X obj 795 555 print df;
#X msg 984 420 ls -l;
#X obj 973 484 print ls-l;
#X obj 36 275 expr if ($f6 > 80 && $f1 > 17 && $f1 < 100 && $f2 > 250 && $f2 < 700 && $f3 < 250 && $f3 < 700 && $f4 > 300 && $f5 > 200 && $f5 < 700 \, 1 \, 0), f 24;
#X obj 250 261 expr if ($f6 > 70 && $f1 > 150 && $f1 < 350 && $f2 > 50 && $f3 > 90 && $f3 < 500 && $f4 > 150 && $f5 > 150 && ($f4 - $f5 < 200) && ($f4 - $f5 > -200) && ($f2 - $f3 < 170) && ($f2 - $f3 > -170) \, 1 \, 0), f 27;
#X obj 453 339 expr if ($f6 > 80 && $f1 > 2500 && $f2 > 3500 && $f3 > 2500 && $f4 > 2500 && $f5 > 2500 && ($f1 + $f2 + $f2 - $f3 - $f4 - $f5 < 2500) && ($f1 + $f2 + $f2 - $f3 - $f4 - $f5 > -2500) \, 1 \, 0), f 25;
#X obj 1098 279 expr if ($f6 > 80 && $f1 > 38 && $f1 < 60 && $f2 > 85 && $f2 < 105 && $f4 > 200 && $f4 < 350 && ($f5 + $f5 - $f4 - $f3 < 150) && ($f5 + $f5 - $f4 - $f3 > -150) \, 1 \, 0), f 28;
#X connect 0 0 2 0;
#X connect 0 0 7 0;
#X connect 1 0 48 5;
#X connect 1 0 67 5;
#X connect 1 0 68 5;
#X connect 1 0 69 5;
#X connect 1 0 70 5;
#X connect 2 0 8 0;
#X connect 3 0 5 0;
#X connect 4 0 5 0;
#X connect 6 0 8 1;
#X connect 6 0 23 0;
#X connect 6 0 24 1;
#X connect 6 0 27 1;
#X connect 6 0 31 1;
#X connect 6 0 35 1;
#X connect 6 0 43 1;
#X connect 6 0 39 1;
#X connect 7 0 3 0;
#X connect 8 0 9 0;
#X connect 8 0 20 0;
#X connect 9 3 1 0;
#X connect 10 0 46 0;
#X connect 10 0 48 0;
#X connect 10 0 67 0;
#X connect 10 0 68 0;
#X connect 10 0 69 0;
#X connect 10 0 70 0;
#X connect 11 0 10 0;
#X connect 12 0 46 1;
#X connect 12 0 48 1;
#X connect 12 0 67 1;
#X connect 12 0 68 1;
#X connect 12 0 69 1;
#X connect 12 0 70 1;
#X connect 13 0 12 0;
#X connect 14 0 46 2;
#X connect 14 0 48 2;
#X connect 14 0 67 2;
#X connect 14 0 68 2;
#X connect 14 0 69 2;
#X connect 14 0 70 2;
#X connect 15 0 14 0;
#X connect 16 0 46 3;
#X connect 16 0 48 3;
#X connect 16 0 67 3;
#X connect 16 0 68 3;
#X connect 16 0 69 3;
#X connect 16 0 70 3;
#X connect 17 0 16 0;
#X connect 18 0 46 4;
#X connect 18 0 48 4;
#X connect 18 0 67 4;
#X connect 18 0 68 4;
#X connect 18 0 69 4;
#X connect 18 0 70 4;
#X connect 19 0 18 0;
#X connect 20 0 21 0;
#X connect 21 0 11 0;
#X connect 21 1 13 0;
#X connect 21 2 15 0;
#X connect 21 3 17 0;
#X connect 21 4 19 0;
#X connect 22 0 25 0;
#X connect 23 0 5 0;
#X connect 24 0 37 0;
#X connect 25 1 24 0;
#X connect 25 1 55 0;
#X connect 26 0 28 0;
#X connect 27 0 29 0;
#X connect 28 1 27 0;
#X connect 28 1 53 0;
#X connect 30 0 32 0;
#X connect 31 0 33 0;
#X connect 32 1 31 0;
#X connect 32 1 59 0;
#X connect 34 0 36 0;
#X connect 35 0 47 0;
#X connect 36 1 35 0;
#X connect 36 1 63 0;
#X connect 38 0 40 0;
#X connect 39 0 41 0;
#X connect 40 1 39 0;
#X connect 40 1 65 0;
#X connect 42 0 44 0;
#X connect 43 0 45 0;
#X connect 44 1 43 0;
#X connect 44 1 50 0;
#X connect 46 0 38 0;
#X connect 48 0 34 0;
#X connect 49 0 51 0;
#X connect 50 0 49 0;
#X connect 52 0 54 0;
#X connect 53 0 52 0;
#X connect 55 0 56 0;
#X connect 56 0 57 0;
#X connect 58 0 60 0;
#X connect 59 0 58 0;
#X connect 61 0 64 0;
#X connect 62 0 66 0;
#X connect 63 0 61 0;
#X connect 65 0 62 0;
#X connect 67 0 22 0;
#X connect 68 0 26 0;
#X connect 69 0 30 0;
#X connect 70 0 42 0;
